<svg width="315" height="61" viewBox="0 0 315 61" fill="none" xmlns="http://www.w3.org/2000/svg">
<g clip-path="url(#clip0_219_36)">
<path fill-rule="evenodd" clip-rule="evenodd" d="M29.5176 10.1504V0.150391H31.0176V10.1504H29.5176ZM23.2267 0.980923L25.8149 10.6402L24.366 11.0284L21.7778 1.36915L23.2267 0.980923ZM34.718 10.6415L37.3062 0.982255L38.7551 1.37048L36.1669 11.0297L34.718 10.6415ZM15.9165 3.79521L20.9165 12.4555L19.6174 13.2055L14.6174 4.54521L15.9165 3.79521ZM39.6156 12.4601L44.6156 3.79989L45.9147 4.54989L40.9147 13.2101L39.6156 12.4601ZM43.8794 15.4746L50.9505 8.40357L52.0111 9.46423L44.9401 16.5353L43.8794 15.4746ZM9.58471 8.40358L16.6558 15.4746L15.5951 16.5353L8.52405 9.46424L9.58471 8.40358ZM47.2125 19.5015L55.8727 14.5015L56.6227 15.8005L47.9625 20.8005L47.2125 19.5015ZM4.6594 14.5061L13.3197 19.5061L12.5697 20.8052L3.9094 15.8052L4.6594 14.5061ZM49.3912 24.252L59.0505 21.6638L59.4387 23.1127L49.7794 25.7009L49.3912 24.252ZM1.48244 21.6651L11.1417 24.2533L10.7535 25.7022L1.09422 23.114L1.48244 21.6651ZM0.267578 29.4004H10.2676V30.9004H0.267578V29.4004ZM50.2676 29.4004H60.2676V30.9004H50.2676V29.4004ZM1.09491 37.1929L10.7542 34.6047L11.1424 36.0536L1.48314 38.6418L1.09491 37.1929ZM49.7787 34.6061L59.438 37.1943L59.0498 38.6432L49.3905 36.055L49.7787 34.6061ZM3.91119 44.5014L12.5714 39.5015L13.3214 40.8005L4.66119 45.8005L3.91119 44.5014ZM47.9607 39.5061L56.6209 44.5061L55.8709 45.8052L47.2107 40.8052L47.9607 39.5061ZM8.52405 50.83L15.5951 43.7589L16.6558 44.8196L9.58471 51.8906L8.52405 50.83ZM44.9401 43.7589L52.0111 50.83L50.9505 51.8906L43.8794 44.8196L44.9401 43.7589ZM40.9165 47.0965L45.9165 55.7567L44.6174 56.5067L39.6174 47.8465L40.9165 47.0965ZM14.6156 55.7614L19.6156 47.1012L20.9147 47.8512L15.9147 56.5114L14.6156 55.7614ZM36.1676 49.2772L38.7558 58.9365L37.3069 59.3247L34.7187 49.6654L36.1676 49.2772ZM21.7771 58.9378L24.3653 49.2785L25.8142 49.6668L23.226 59.326L21.7771 58.9378ZM29.5176 60.1504V50.1504H31.0176V60.1504H29.5176Z" fill="white"/>
<path d="M84.9659 43.6329C83.5833 43.6329 82.3333 43.3772 81.2159 42.8659C80.0985 42.345 79.2131 41.5922 78.5597 40.6073C77.9157 39.6225 77.5938 38.4151 77.5938 36.9852C77.5938 35.7541 77.8305 34.7409 78.304 33.9454C78.7775 33.15 79.4167 32.5202 80.2216 32.0562C81.0265 31.5922 81.9261 31.2418 82.9205 31.0051C83.9148 30.7683 84.928 30.5884 85.9602 30.4653C87.267 30.3138 88.3277 30.1907 89.142 30.096C89.9564 29.9918 90.5483 29.8261 90.9176 29.5988C91.2869 29.3715 91.4716 29.0022 91.4716 28.4909V28.3914C91.4716 27.1509 91.1212 26.1897 90.4205 25.5079C89.7292 24.8261 88.697 24.4852 87.3239 24.4852C85.8939 24.4852 84.767 24.8024 83.9432 25.4369C83.1288 26.0619 82.5653 26.7579 82.2528 27.525L78.2614 26.6159C78.7348 25.2901 79.4261 24.22 80.3352 23.4056C81.2538 22.5818 82.3097 21.9852 83.5028 21.6159C84.696 21.2371 85.9508 21.0477 87.267 21.0477C88.1383 21.0477 89.0616 21.1518 90.0369 21.3602C91.0218 21.559 91.9403 21.9284 92.7926 22.4681C93.6544 23.0079 94.3599 23.7797 94.9091 24.7835C95.4583 25.7778 95.733 27.0704 95.733 28.6613V43.15H91.5852V40.167H91.4148C91.1402 40.7162 90.7282 41.256 90.179 41.7863C89.6297 42.3166 88.9242 42.757 88.0625 43.1073C87.2008 43.4577 86.1686 43.6329 84.9659 43.6329ZM85.8892 40.2238C87.0634 40.2238 88.0672 39.9918 88.9006 39.5278C89.7434 39.0638 90.3826 38.4577 90.8182 37.7096C91.2633 36.952 91.4858 36.1424 91.4858 35.2806V32.4681C91.3343 32.6196 91.0407 32.7617 90.6051 32.8943C90.179 33.0174 89.6913 33.1263 89.142 33.221C88.5928 33.3062 88.0578 33.3867 87.5369 33.4625C87.0161 33.5287 86.5805 33.5856 86.2301 33.6329C85.4063 33.7371 84.6534 33.9123 83.9716 34.1585C83.2992 34.4047 82.7595 34.7598 82.3523 35.2238C81.9545 35.6784 81.7557 36.2844 81.7557 37.042C81.7557 38.0931 82.1439 38.8886 82.9205 39.4284C83.697 39.9587 84.6866 40.2238 85.8892 40.2238Z" fill="white"/>
<path d="M115.211 34.1017V21.3318H119.472V43.15H115.296V39.3715H115.069C114.567 40.5363 113.762 41.507 112.654 42.2835C111.556 43.0505 110.187 43.434 108.549 43.434C107.147 43.434 105.907 43.1263 104.827 42.5107C103.757 41.8857 102.915 40.9625 102.299 39.7409C101.693 38.5193 101.39 37.0089 101.39 35.2096V21.3318H105.637V34.6982C105.637 36.185 106.049 37.3687 106.873 38.2494C107.697 39.1301 108.767 39.5704 110.083 39.5704C110.879 39.5704 111.669 39.3715 112.455 38.9738C113.251 38.5761 113.909 37.9748 114.43 37.1698C114.96 36.3649 115.22 35.3422 115.211 34.1017Z" fill="white"/>
<path d="M135.364 21.3318V24.7409H123.446V21.3318H135.364ZM126.642 16.1045H130.889V36.7437C130.889 37.5676 131.012 38.1878 131.259 38.6045C131.505 39.0117 131.822 39.2911 132.21 39.4426C132.608 39.5846 133.039 39.6556 133.503 39.6556C133.844 39.6556 134.142 39.632 134.398 39.5846C134.653 39.5373 134.852 39.4994 134.994 39.471L135.761 42.9795C135.515 43.0742 135.165 43.1689 134.71 43.2636C134.256 43.3678 133.688 43.4246 133.006 43.434C131.888 43.453 130.847 43.2541 129.881 42.8375C128.915 42.4208 128.134 41.7768 127.537 40.9056C126.94 40.0344 126.642 38.9407 126.642 37.6244V16.1045Z" fill="white"/>
<path d="M149.018 43.5903C146.972 43.5903 145.187 43.1215 143.663 42.184C142.138 41.2465 140.954 39.935 140.112 38.2494C139.269 36.5638 138.847 34.5941 138.847 32.3403C138.847 30.077 139.269 28.0979 140.112 26.4028C140.954 24.7077 142.138 23.3914 143.663 22.4539C145.187 21.5164 146.972 21.0477 149.018 21.0477C151.063 21.0477 152.848 21.5164 154.373 22.4539C155.898 23.3914 157.081 24.7077 157.924 26.4028C158.767 28.0979 159.188 30.077 159.188 32.3403C159.188 34.5941 158.767 36.5638 157.924 38.2494C157.081 39.935 155.898 41.2465 154.373 42.184C152.848 43.1215 151.063 43.5903 149.018 43.5903ZM149.032 40.025C150.358 40.025 151.456 39.6746 152.327 38.9738C153.199 38.2731 153.843 37.3403 154.259 36.1755C154.685 35.0107 154.898 33.7276 154.898 32.3261C154.898 30.934 154.685 29.6556 154.259 28.4909C153.843 27.3166 153.199 26.3744 152.327 25.6642C151.456 24.9539 150.358 24.5988 149.032 24.5988C147.697 24.5988 146.589 24.9539 145.708 25.6642C144.837 26.3744 144.188 27.3166 143.762 28.4909C143.345 29.6556 143.137 30.934 143.137 32.3261C143.137 33.7276 143.345 35.0107 143.762 36.1755C144.188 37.3403 144.837 38.2731 145.708 38.9738C146.589 39.6746 147.697 40.025 149.032 40.025Z" fill="white"/>
<path d="M168.176 30.1954V43.15H163.929V21.3318H168.006V24.8829H168.276C168.777 23.7276 169.563 22.7996 170.634 22.0988C171.713 21.3981 173.072 21.0477 174.71 21.0477C176.197 21.0477 177.499 21.3602 178.616 21.9852C179.734 22.6007 180.6 23.5193 181.216 24.7409C181.831 25.9624 182.139 27.4729 182.139 29.2721V43.15H177.892V29.7835C177.892 28.202 177.48 26.9662 176.656 26.0761C175.832 25.1765 174.701 24.7267 173.261 24.7267C172.277 24.7267 171.401 24.9397 170.634 25.3659C169.876 25.792 169.275 26.417 168.83 27.2409C168.394 28.0553 168.176 29.0401 168.176 30.1954Z" fill="white"/>
<path d="M197.026 43.5903C194.98 43.5903 193.195 43.1215 191.67 42.184C190.146 41.2465 188.962 39.935 188.119 38.2494C187.277 36.5638 186.855 34.5941 186.855 32.3403C186.855 30.077 187.277 28.0979 188.119 26.4028C188.962 24.7077 190.146 23.3914 191.67 22.4539C193.195 21.5164 194.98 21.0477 197.026 21.0477C199.071 21.0477 200.856 21.5164 202.381 22.4539C203.905 23.3914 205.089 24.7077 205.932 26.4028C206.775 28.0979 207.196 30.077 207.196 32.3403C207.196 34.5941 206.775 36.5638 205.932 38.2494C205.089 39.935 203.905 41.2465 202.381 42.184C200.856 43.1215 199.071 43.5903 197.026 43.5903ZM197.04 40.025C198.366 40.025 199.464 39.6746 200.335 38.9738C201.206 38.2731 201.85 37.3403 202.267 36.1755C202.693 35.0107 202.906 33.7276 202.906 32.3261C202.906 30.934 202.693 29.6556 202.267 28.4909C201.85 27.3166 201.206 26.3744 200.335 25.6642C199.464 24.9539 198.366 24.5988 197.04 24.5988C195.705 24.5988 194.597 24.9539 193.716 25.6642C192.845 26.3744 192.196 27.3166 191.77 28.4909C191.353 29.6556 191.145 30.934 191.145 32.3261C191.145 33.7276 191.353 35.0107 191.77 36.1755C192.196 37.3403 192.845 38.2731 193.716 38.9738C194.597 39.6746 195.705 40.025 197.04 40.025Z" fill="white"/>
<path d="M211.937 43.15V21.3318H216.014V24.8829H216.283C216.738 23.6803 217.481 22.7428 218.514 22.0704C219.546 21.3886 220.782 21.0477 222.221 21.0477C223.679 21.0477 224.901 21.3886 225.886 22.0704C226.88 22.7522 227.614 23.6897 228.087 24.8829H228.315C228.836 23.7181 229.664 22.7901 230.8 22.0988C231.937 21.3981 233.291 21.0477 234.863 21.0477C236.842 21.0477 238.457 21.6679 239.707 22.9085C240.966 24.149 241.596 26.0193 241.596 28.5193V43.15H237.349V28.917C237.349 27.4397 236.946 26.3696 236.141 25.7068C235.336 25.0439 234.375 24.7124 233.258 24.7124C231.875 24.7124 230.8 25.1386 230.033 25.9909C229.266 26.8337 228.883 27.9179 228.883 29.2437V43.15H224.65V28.6471C224.65 27.4634 224.281 26.5117 223.542 25.792C222.803 25.0723 221.842 24.7124 220.658 24.7124C219.854 24.7124 219.11 24.9255 218.428 25.3517C217.756 25.7683 217.211 26.3507 216.795 27.0988C216.388 27.8469 216.184 28.7134 216.184 29.6982V43.15H211.937Z" fill="white"/>
<path d="M256.479 43.5903C254.433 43.5903 252.648 43.1215 251.124 42.184C249.599 41.2465 248.415 39.935 247.572 38.2494C246.73 36.5638 246.308 34.5941 246.308 32.3403C246.308 30.077 246.73 28.0979 247.572 26.4028C248.415 24.7077 249.599 23.3914 251.124 22.4539C252.648 21.5164 254.433 21.0477 256.479 21.0477C258.524 21.0477 260.309 21.5164 261.834 22.4539C263.358 23.3914 264.542 24.7077 265.385 26.4028C266.228 28.0979 266.649 30.077 266.649 32.3403C266.649 34.5941 266.228 36.5638 265.385 38.2494C264.542 39.935 263.358 41.2465 261.834 42.184C260.309 43.1215 258.524 43.5903 256.479 43.5903ZM256.493 40.025C257.819 40.025 258.917 39.6746 259.788 38.9738C260.66 38.2731 261.304 37.3403 261.72 36.1755C262.146 35.0107 262.359 33.7276 262.359 32.3261C262.359 30.934 262.146 29.6556 261.72 28.4909C261.304 27.3166 260.66 26.3744 259.788 25.6642C258.917 24.9539 257.819 24.5988 256.493 24.5988C255.158 24.5988 254.05 24.9539 253.169 25.6642C252.298 26.3744 251.649 27.3166 251.223 28.4909C250.806 29.6556 250.598 30.934 250.598 32.3261C250.598 33.7276 250.806 35.0107 251.223 36.1755C251.649 37.3403 252.298 38.2731 253.169 38.9738C254.05 39.6746 255.158 40.025 256.493 40.025Z" fill="white"/>
<path d="M285.211 34.1017V21.3318H289.472V43.15H285.296V39.3715H285.069C284.567 40.5363 283.762 41.507 282.654 42.2835C281.556 43.0505 280.187 43.434 278.549 43.434C277.148 43.434 275.907 43.1263 274.827 42.5107C273.757 41.8857 272.915 40.9625 272.299 39.7409C271.693 38.5193 271.39 37.0089 271.39 35.2096V21.3318H275.637V34.6982C275.637 36.185 276.049 37.3687 276.873 38.2494C277.697 39.1301 278.767 39.5704 280.083 39.5704C280.879 39.5704 281.669 39.3715 282.455 38.9738C283.251 38.5761 283.909 37.9748 284.43 37.1698C284.96 36.3649 285.22 35.3422 285.211 34.1017Z" fill="white"/>
<path d="M311.528 26.6585L307.679 27.3403C307.518 26.8479 307.262 26.3791 306.912 25.934C306.571 25.489 306.107 25.1244 305.52 24.8403C304.933 24.5562 304.199 24.4142 303.318 24.4142C302.116 24.4142 301.112 24.684 300.307 25.2238C299.502 25.7541 299.099 26.4407 299.099 27.2835C299.099 28.0126 299.369 28.5998 299.909 29.0448C300.449 29.4899 301.32 29.8545 302.523 30.1386L305.989 30.934C307.996 31.3981 309.492 32.113 310.477 33.0789C311.462 34.0448 311.955 35.2996 311.955 36.8431C311.955 38.15 311.576 39.3147 310.818 40.3375C310.07 41.3507 309.024 42.1462 307.679 42.7238C306.344 43.3015 304.796 43.5903 303.034 43.5903C300.591 43.5903 298.598 43.0695 297.054 42.0278C295.51 40.9767 294.564 39.4852 294.213 37.5534L298.318 36.9284C298.574 37.9984 299.1 38.8081 299.895 39.3573C300.69 39.8971 301.727 40.167 303.006 40.167C304.398 40.167 305.51 39.8782 306.344 39.3005C307.177 38.7134 307.594 37.9984 307.594 37.1556C307.594 36.4738 307.338 35.9009 306.827 35.4369C306.325 34.9729 305.553 34.6225 304.511 34.3857L300.818 33.5761C298.782 33.1121 297.277 32.3734 296.301 31.3602C295.335 30.3469 294.852 29.0638 294.852 27.5107C294.852 26.2229 295.212 25.096 295.932 24.1301C296.652 23.1642 297.646 22.4113 298.915 21.8715C300.184 21.3223 301.637 21.0477 303.276 21.0477C305.634 21.0477 307.49 21.559 308.844 22.5818C310.198 23.595 311.093 24.9539 311.528 26.6585Z" fill="white"/>
<path d="M29.5117 10.1484V0.148438H31.0117V10.1484H29.5117Z" fill="white"/>
</g>
<defs>
<clipPath id="clip0_219_36">
<rect width="314" height="60" fill="white" transform="translate(0.242188 0.151367)"/>
</clipPath>
</defs>
</svg>
